<?xml version="1.0" standalone="no"?>
<!DOCTYPE svg PUBLIC "-//W3C//DTD SVG 20010904//EN"
 "http://www.w3.org/TR/2001/REC-SVG-20010904/DTD/svg10.dtd">
<svg version="1.0" xmlns="http://www.w3.org/2000/svg"
 width="1000.000000pt" height="1000.000000pt" viewBox="0 0 1000.000000 1000.000000"
 preserveAspectRatio="xMidYMid meet">
<metadata>
Created by potrace 1.11, written by Peter Selinger 2001-2013
</metadata>
<g transform="translate(0.000000,1000.000000) scale(0.100000,-0.100000)"
fill="#000000" stroke="none">
<path d="M4957 9734 c-1 -1 -76 -4 -167 -8 -160 -7 -185 -8 -300 -21 -124 -14
-146 -16 -160 -20 -8 -2 -37 -7 -65 -11 -27 -3 -59 -8 -70 -10 -11 -2 -36 -7
-55 -10 -58 -11 -62 -12 -140 -29 -41 -9 -84 -18 -95 -20 -166 -35 -549 -160
-725 -237 -14 -6 -34 -14 -45 -19 -11 -4 -60 -26 -110 -49 -327 -153 -551
-285 -831 -491 -144 -106 -147 -108 -248 -195 -39 -33 -84 -71 -100 -85 -54
-44 -320 -312 -393 -396 -60 -68 -130 -154 -246 -303 -222 -283 -447 -693
-628 -1142 -19 -47 -94 -268 -122 -363 -52 -168 -121 -491 -142 -655 -3 -25
-8 -61 -11 -80 -9 -65 -12 -95 -19 -194 -4 -54 -9 -111 -11 -125 -4 -36 -5
-440 0 -526 5 -93 16 -224 21 -255 3 -14 7 -52 10 -85 4 -33 8 -71 11 -85 2
-14 9 -54 14 -90 9 -52 37 -193 65 -322 13 -61 70 -263 106 -373 109 -340 288
-725 484 -1040 312 -503 773 -996 1250 -1336 298 -212 690 -428 1010 -554 111
-44 419 -149 469 -160 11 -2 57 -14 101 -26 44 -11 87 -23 95 -24 44 -11 168
-37 190 -41 14 -2 39 -7 55 -11 17 -4 39 -7 50 -9 30 -2 108 -15 125 -19 8 -2
40 -6 70 -10 30 -3 71 -8 90 -10 171 -22 578 -33 770 -21 94 6 209 16 255 22
22 2 57 7 78 9 142 18 145 19 367 61 14 3 54 12 90 20 36 9 74 17 86 20 11 2
83 21 160 43 119 34 198 61 439 147 22 8 58 23 80 33 22 10 60 27 85 37 132
55 458 226 568 296 15 10 39 24 53 32 15 9 57 36 93 61 322 220 494 362 746
615 290 290 534 611 745 975 63 108 197 377 234 465 12 30 26 64 31 75 46 101
153 407 185 530 58 216 76 299 110 490 8 44 17 103 20 130 3 28 8 61 10 75 9
47 20 165 31 330 5 70 4 469 0 535 -13 172 -29 320 -46 425 -5 30 -11 72 -15
93 -3 21 -18 102 -35 180 -58 281 -119 481 -233 772 -57 144 -231 513 -277
585 -5 8 -34 57 -65 108 -80 135 -245 376 -322 472 -86 107 -136 167 -192 230
-70 79 -299 311 -366 370 -275 244 -513 416 -835 604 -106 62 -457 230 -595
284 -187 74 -473 167 -575 187 -8 2 -42 10 -75 19 -33 8 -96 22 -140 31 -107
22 -104 22 -155 29 -25 3 -55 8 -67 10 -11 3 -43 7 -70 11 -26 4 -59 9 -73 11
-14 2 -54 6 -90 10 -36 3 -81 8 -100 10 -19 2 -105 6 -190 9 -85 4 -176 7
-203 9 -26 1 -49 1 -50 0z"/>
</g>
</svg>
